{"title":"Greenberg (PSP + Ipod touch + Zune)","uid":5659948,"size":427953970,"categoryP":"video","categoryS":"handheld","magnet":"?xt=urn:btih:a2aa2376f4c8d5089fd18906e86f371ce7307710&amp;dn=Greenberg+%28PSP+%2B+Ipod+touch+%2B+Zune%29&amp;tr=udp%3A%2F%2Ftracker.openbittorrent.com%3A80&amp;tr=udp%3A%2F%2Fopen.demonii.com%3A1337&amp;tr=udp%3A%2F%2Ftracker.coppersurfer.tk%3A6969&amp;tr=udp%3A%2F%2Fexodus.desync.com%3A6969","seeders":0,"leechers":0,"uploader":"on.off.on","files":-1,"time":1277938149,"description":"Greenberg &lt;a href=&quot;\nhttp://www.imdb.com/title/tt1234654/&quot; rel=&quot;nofollow&quot; target=&quot;_NEW&quot;&gt;\nhttp://www.imdb.com/title/tt1234654/&lt;/a&gt;\n\n\nSource  :\n\ngreenberg.limited.720p.bluray.x264-machd\n\nInfo :\n\nID                               : 1\nFormat                           : AVC\nFormat/Info                      : Advanced Video Codec\nFormat profile                   : &lt;a class=&quot;__cf_email__&quot; href=&quot;/cdn-cgi/l/email-protection&quot; data-cfemail=&quot;b6f4d7c5d3dadfd8d3f6fa849886&quot;&gt;[email&amp;#160;protected]&lt;/a&gt;&lt;script cf-hash='f9e31' type=&quot;text/javascript&quot;&gt;\n/* &lt;![CDATA[ */!function(){try{var t=&quot;currentScript&quot;in document?document.currentScript:function(){for(var t=document.getElementsByTagName(&quot;script&quot;),e=t.length;e--;)if(t[e].getAttribute(&quot;cf-hash&quot;))return t[e]}();if(t&amp;&amp;t.previousSibling){var e,r,n,i,c=t.previousSibling,a=c.getAttribute(&quot;data-cfemail&quot;);if(a){for(e=&quot;&quot;,r=parseInt(a.substr(0,2),16),n=2;a.length-n;n+=2)i=parseInt(a.substr(n,2),16)^r,e+=String.fromCharCode(i);e=document.createTextNode(e),c.parentNode.replaceChild(e,c)}}}catch(u){}}();/* ]]&gt; */&lt;/script&gt;\nFormat settings, CABAC           : No\nFormat settings, ReFrames        : 3 frames\nCodec ID                         : avc1\nCodec ID/Info                    : Advanced Video Coding\nDuration                         : 1h 47mn\nBit rate mode                    : Variable\nBit rate                         : 400 Kbps\nWidth                            : 480 pixels\nHeight                           : 208 pixels\nDisplay aspect ratio             : 2.35:1\nFrame rate mode                  : Variable\nFrame rate                       : 23.976 fps\nMinimum frame rate               : 23.810 fps\nMaximum frame rate               : 24.390 fps\nColor space                      : YUV\nChroma subsampling               : 4:2:0\nBit depth                        : 8 bits\nScan type                        : Progressive\nBits/(Pixel*Frame)               : 0.167\nStream size                      : 307 MiB (75%)\nWriting library                  : x264 core 79\n\nID                               : 2\nFormat                           : AAC\nFormat/Info                      : Advanced Audio Codec\nFormat version                   : Version 4\nFormat profile                   : LC\nFormat settings, SBR             : No\nCodec ID                         : 40\nDuration                         : 1h 47mn\nBit rate mode                    : Variable\nBit rate                         : 128 Kbps\nMaximum bit rate                 : 208 Kbps\nChannel(s)                       : 2 channels\nChannel positions                : Front: L R\nSampling rate                    : 48.0 KHz\nStream size                      : 98.1 MiB (24%)\nLanguage                         : English\n\n\nScreens : &lt;a href=&quot;\nhttp://img80.imageshack.us/img80/81/vlcsnap00001gf.png&quot; rel=&quot;nofollow&quot; target=&quot;_NEW&quot;&gt;\nhttp://img80.imageshack.us/img80/81/vlcsnap00001gf.png&lt;/a&gt; &lt;a href=&quot;\nhttp://img121.imageshack.us/img121/4782/vlcsnap00002j.png&quot; rel=&quot;nofollow&quot; target=&quot;_NEW&quot;&gt;\nhttp://img121.imageshack.us/img121/4782/vlcsnap00002j.png&lt;/a&gt; &lt;a href=&quot;\nhttp://img18.imageshack.us/img18/1992/vlcsnap00003vy.png&quot; rel=&quot;nofollow&quot; target=&quot;_NEW&quot;&gt;\nhttp://img18.imageshack.us/img18/1992/vlcsnap00003vy.png&lt;/a&gt; &lt;a href=&quot;\nhttp://img682.imageshack.us/img682/5936/vlcsnap00004z.png&quot; rel=&quot;nofollow&quot; target=&quot;_NEW&quot;&gt;\nhttp://img682.imageshack.us/img682/5936/vlcsnap00004z.png&lt;/a&gt; &lt;a href=&quot;\nhttp://img535.imageshack.us/img535/952/vlcsnap00005j.png&quot; rel=&quot;nofollow&quot; target=&quot;_NEW&quot;&gt;\nhttp://img535.imageshack.us/img535/952/vlcsnap00005j.png&lt;/a&gt; &lt;a href=&quot;\nhttp://img189.imageshack.us/img189/7601/vlcsnap00006v.png&quot; rel=&quot;nofollow&quot; target=&quot;_NEW&quot;&gt;\nhttp://img189.imageshack.us/img189/7601/vlcsnap00006v.png&lt;/a&gt; &lt;a href=&quot;\nhttp://img444.imageshack.us/img444/1359/vlcsnap00007k.png&quot; rel=&quot;nofollow&quot; target=&quot;_NEW&quot;&gt;\nhttp://img444.imageshack.us/img444/1359/vlcsnap00007k.png&lt;/a&gt; &lt;a href=&quot;\nhttp://img713.imageshack.us/img713/8104/vlcsnap00008.png&quot; rel=&quot;nofollow&quot; target=&quot;_NEW&quot;&gt;\nhttp://img713.imageshack.us/img713/8104/vlcsnap00008.png&lt;/a&gt;\n\n\n\n\nPLEASE LET THE TORRENT SEED AND SHARE IT WITH ALL YOU KNOW!\n\nLet me know what I can do to be your trusted source of Handheld videos. &lt;a href=&quot;\nhttp://thepiratebay.se/user/on.off.on/&quot; rel=&quot;nofollow&quot; target=&quot;_NEW&quot;&gt;\nhttp://thepiratebay.se/user/on.off.on/&lt;/a&gt; -OOO","torrent":{"xt":"urn:btih:a2aa2376f4c8d5089fd18906e86f371ce7307710","amp;dn":"Greenberg+%28PSP+%2B+Ipod+touch+%2B+Zune%29","amp;tr":["udp%3A%2F%2Ftracker.openbittorrent.com%3A80","udp%3A%2F%2Fopen.demonii.com%3A1337","udp%3A%2F%2Ftracker.coppersurfer.tk%3A6969","udp%3A%2F%2Fexodus.desync.com%3A6969"],"infoHash":"a2aa2376f4c8d5089fd18906e86f371ce7307710","infoHashBuffer":{"type":"Buffer","data":[162,170,35,118,244,200,213,8,159,209,137,6,232,111,55,28,231,48,119,16]},"announce":[],"urlList":[]}}